HIERARCHY
ROOT Hips
{
  OFFSET 40.9192 92.6879 18.85
  CHANNELS 6 Xposition Yposition Zposition Zrotation Xrotation Yrotation
  JOINT LeftUpLeg
  {
    OFFSET 8.64259 1.95398 -2.38835
    CHANNELS 3 Zrotation Xrotation Yrotation
    JOINT LeftLeg
    {
      OFFSET 43.7702 0 0
      CHANNELS 3 Zrotation Xrotation Yrotation
      JOINT LeftFoot
      {
        OFFSET 40.6238 0 0
        CHANNELS 3 Zrotation Xrotation Yrotation
        JOINT LeftToeBase
        {
          OFFSET 12.7242 0 0
          CHANNELS 3 Zrotation Xrotation Yrotation
          End Site
          {
            OFFSET 0 0 0
          }
        }
      }
    }
  }
  JOINT RightUpLeg
  {
    OFFSET -8.2249 1.95398 -2.59336
    CHANNELS 3 Zrotation Xrotation Yrotation
    JOINT RightLeg
    {
      OFFSET 43.5653 0 0
      CHANNELS 3 Zrotation Xrotation Yrotation
      JOINT RightFoot
      {
        OFFSET 40.6238 0 0
        CHANNELS 3 Zrotation Xrotation Yrotation
        JOINT RightToeBase
        {
          OFFSET 12.7242 0 0
          CHANNELS 3 Zrotation Xrotation Yrotation
          End Site
          {
            OFFSET 0 0 0
          }
        }
      }
    }
  }
  JOINT Spine
  {
    OFFSET 0.165834 0.87714 6.61349
    CHANNELS 3 Zrotation Xrotation Yrotation
    JOINT Spine1
    {
      OFFSET 7.38963 1.71661e-005 0
      CHANNELS 3 Zrotation Xrotation Yrotation
      JOINT Spine2
      {
        OFFSET 11.9445 1.14441e-005 0
        CHANNELS 3 Zrotation Xrotation Yrotation
        JOINT Spine3
        {
          OFFSET 14.7254 4.19617e-005 0
          CHANNELS 3 Zrotation Xrotation Yrotation
          JOINT Spine4
          {
            OFFSET 10.9679 0 0
            CHANNELS 3 Zrotation Xrotation Yrotation
            JOINT RightShoulder
            {
              OFFSET 2.46616 -1.6653 3.69651
              CHANNELS 3 Zrotation Xrotation Yrotation
              JOINT RightArm
              {
                OFFSET 13.0012 0 0
                CHANNELS 3 Zrotation Xrotation Yrotation
                JOINT RightForeArm
                {
                  OFFSET 28.7848 1.52588e-005 0
                  CHANNELS 3 Zrotation Xrotation Yrotation
                  JOINT RightHand
                  {
                    OFFSET 26.5688 1.52588e-005 0
                    CHANNELS 3 Zrotation Xrotation Yrotation
                    End Site
                    {
                      OFFSET 0 0 0
                    }
                  }
                }
              }
            }
            JOINT LeftShoulder
            {
              OFFSET 2.38034 -1.29275 -3.7523
              CHANNELS 3 Zrotation Xrotation Yrotation
              JOINT LeftArm
              {
                OFFSET 16.3182 6.10351e-005 0
                CHANNELS 3 Zrotation Xrotation Yrotation
                JOINT LeftForeArm
                {
                  OFFSET 27.0901 0 0
                  CHANNELS 3 Zrotation Xrotation Yrotation
                  JOINT LeftHand
                  {
                    OFFSET 24.5451 1.52588e-005 0
                    CHANNELS 3 Zrotation Xrotation Yrotation
                    End Site
                    {
                      OFFSET 0 0 0
                    }
                  }
                }
              }
            }
            JOINT Neck
            {
              OFFSET 5.0226 -0.0266342 0
              CHANNELS 3 Zrotation Xrotation Yrotation
              JOINT Head
              {
                OFFSET 6.69363 2.86102e-005 0
                CHANNELS 3 Zrotation Xrotation Yrotation
                End Site
                {
                  OFFSET 0 0 0
                }
              }
            }
          }
        }
      }
    }
  }
}
MOTION
Frames:	14
Frame Time:	0.0416667
-63.3977 49.0861 14.9484 44.3883 0.0611523 84.2238 -168.899 33.0439 99.1445 -82.3404 15.6938 0.124785 55.5858 3.26076 6.83196 53.6399 26.7197 25.1065 156.685 71.7534 116.338 -125.825 -1.95347 -3.06602 58.3721 -3.12368 -3.65917 56.2617 3.75647 13.226 -0.0347108 9.90865 -90.9422 7.04914 -0.473969 -1.83655 -4.62299 -0.554334 -1.81391 -27.1477 0.099789 -1.89406 -7.1351 0.0997895 -1.89406 92.795 -7.95796 -111.32 1.52166 29.9625 -34.5652 -23.0111 -21.5563 -52.3471 -37.1331 -5.08624 11.5611 -95.9364 -22.5075 58.1622 35.2779 -19.6325 -20.6641 0.607068 2.68904 -33.7291 25.8457 1.79369 3.21073 19.8341 -12.0389 10.4468 19.4728 -17.8848 -15.8767 
-64.6137 49.5381 16.8647 47.8621 2.84919 82.3156 -172.131 32.7426 99.366 -84.1994 17.7814 0.881405 53.0983 0.524235 3.91688 50.0833 23.3404 27.6804 155.039 69.9741 115.864 -126.451 -0.60384 -3.16446 58.9907 -3.83947 -4.11201 56.4731 2.983 8.83189 0.0927103 9.93029 -91.0163 7.00698 -0.250963 -1.99236 -4.66547 -0.338381 -1.97939 -27.1886 0.359312 -1.97569 -7.17593 0.359332 -1.97567 92.0553 -9.11261 -112.675 0.79783 30.5051 -30.6467 -25.5291 -22.7527 -52.8028 -34.8377 -4.78403 11.7216 -97.8119 -25.9648 56.543 31.4615 -17.5034 -22.0851 3.52473 4.43471 -42.7883 26.8334 2.00152 3.62437 19.4612 -12.9867 14.3072 18.0305 -19.7465 -16.6598 
-66.0064 49.9679 18.2767 51.4776 6.03285 79.7928 -175.338 34.1701 99.0449 -87.3379 18.692 1.5141 49.8873 -2.20061 1.06578 47.5982 19.5298 24.6437 157.58 69.5859 110.525 -127.452 -0.493146 -3.17889 58.2752 -3.85569 -4.22443 55.6558 3.67458 13.3452 0.223204 9.93768 -91.0975 6.99325 -0.0249505 -2.16185 -4.6795 -0.120063 -2.15868 -27.2011 0.625762 -2.06949 -7.18844 0.625777 -2.06951 91.3436 -9.85654 -114.164 -2.08543 30.6352 -25.1624 -23.7416 -22.5316 -49.7316 -32.6939 -4.43493 11.3661 -99.8682 -29.9199 55.0661 24.2669 -11.8196 -20.7379 8.83583 5.00703 -56.4486 26.1605 2.11941 4.30552 19.5595 -14.5565 18.5876 16.246 -22.3547 -17.8934 
-67.6254 50.4121 19.659 55.6907 9.68128 77.2734 -176.569 37.8468 99.4243 -92.51 18.4437 1.65443 48.8899 -2.60542 2.40874 48.263 18.4867 16.9842 157.786 68.7147 106.802 -128.15 -1.34487 -3.29051 56.7258 -3.34504 -4.06677 53.5179 3.40378 13.9376 0.449934 9.86015 -91.0821 7.15266 0.432865 -2.15263 -4.52 0.337715 -2.16959 -27.0438 1.05971 -1.92316 -7.03117 1.0597 -1.92317 90.4158 -13.8322 -113.886 -7.19834 29.976 -20.31 -22.3429 -24.0774 -46.1926 -27.431 -4.20602 12.9767 -102.944 -34.4098 52.3333 18.6069 -1.90271 -16.1292 14.43 3.71472 -68.3339 22.719 1.84919 4.28805 18.7941 -16.9021 19.2684 14.8739 -24.2596 -17.0833 
-69.4451 51.0723 21.1959 60.3998 14.1511 74.3919 -175.641 43.3542 99.2016 -96.7671 11.2853 1.86327 51.9884 1.42196 6.83593 49.1413 18.4302 12.7351 154.358 67.2941 105.202 -127.961 0.406022 -3.56946 54.4227 -3.19384 -4.14903 54.248 3.65256 14.6935 0.502195 9.90869 -90.9302 7.05785 0.603448 -1.86064 -4.61432 0.520992 -1.88538 -27.1423 1.13468 -1.59337 -7.12962 1.13468 -1.59337 90.4932 -15.4197 -112.708 -10.9653 27.8735 -16.0915 -19.465 -26.8957 -41.3449 -22.9853 -3.26843 11.4694 -102.716 -37.0352 54.1265 12.622 8.69402 -13.2575 17.9593 3.27868 -71.7434 17.3962 1.3298 3.79577 18.6353 -18.9966 20.0928 13.7456 -26.2166 -17.0197 
-71.251 51.7506 22.8276 65.5488 16.7921 71.4491 -172.336 48.7132 98.5627 -99.6316 6.95357 1.95925 56.0979 4.86161 8.69421 47.5405 17.251 14.5699 153.853 65.7547 102.511 -128.032 -0.416653 -3.69416 53.3889 -3.06224 -4.39054 55.2193 3.97123 15.477 0.587678 10.0468 -90.6602 6.78389 0.891774 -1.33553 -4.88749 0.832145 -1.3735 -27.4216 1.2519 -1.00582 -7.409 1.25193 -1.00581 90.6429 -18.851 -110.365 -10.4207 28.4567 -13.7326 -19.4189 -21.9385 -45.0819 -12.3766 -1.88389 10.2699 -102.559 -38.8251 55.3004 6.36205 16.6862 -7.41022 16.9554 4.51307 -69.0977 18.6904 1.60652 4.74961 14.0218 -21.3723 17.9814 16.0418 -27.5291 -16.3702 
-72.8898 52.41 24.0421 70.1732 19.4361 69.4963 -168.26 54.6701 97.0579 -101.836 4.52442 2.06059 60.6204 8.34532 8.80493 48.3307 17.5514 12.2546 152.17 64.1787 101.048 -128.13 -1.93128 -3.77424 52.9783 -2.91344 -4.7345 55.1408 3.51719 12.9461 0.598192 10.1649 -90.4016 6.54721 1.02413 -0.828564 -5.12363 0.986696 -0.872839 -27.6611 1.22582 -0.482439 -7.64849 1.22581 -0.482446 90.673 -23.7083 -107.95 -9.00725 28.7518 -13.7737 -18.6185 -19.0379 -46.0426 -8.03465 -1.20664 8.0075 -101.823 -38.9503 56.5334 -1.03114 20.0263 0.390396 16.2688 7.16727 -64.9677 21.4648 2.30137 6.92681 8.95399 -23.3584 13.9626 18.3315 -28.0972 -14.8842 
-74.4183 52.8014 25.0804 74.6484 20.2662 67.445 -159.55 59.8123 92.2652 -103.836 7.17662 1.88075 61.3946 8.75883 11.1988 49.4334 19.1024 14.4753 151.04 62.3328 99.9116 -128.039 -0.196405 -3.80532 52.1153 -3.46816 -5.41889 54.5938 3.03665 10.6258 0.600545 10.4475 -90.0814 5.98043 1.16555 -0.194089 -5.69 1.15588 -0.245209 -28.2294 1.16997 0.165235 -8.21675 1.16997 0.165221 89.8705 -26.9387 -108.271 -9.58819 25.039 -11.127 -17.5673 -20.4299 -45.9954 -11.3868 -1.62558 9.02887 -100.142 -39.665 59.5605 -6.04888 20.161 6.10505 13.4818 9.12577 -59.5573 23.5841 2.72371 7.77901 7.35938 -24.177 12.9368 17.3622 -28.6882 -16.1973 
-75.6379 53.1569 26.0412 78.2912 20.5328 65.3267 -146.602 63.6004 83.0736 -104.943 11.1744 1.72511 62.0868 8.07424 10.233 49.5912 19.1886 14.1753 151.706 60.9779 97.9306 -128.009 0.235987 -3.69782 51.6241 -3.7496 -6.00475 54.5191 3.18778 11.6244 0.645737 10.7014 -89.7707 5.4673 1.38574 0.418059 -6.20296 1.40279 0.356638 -28.7422 1.19603 0.815243 -8.72951 1.19603 0.815242 88.764 -32.2385 -108.287 -11.208 22.48 -9.15555 -17.3241 -20.6984 -47.8297 -9.95611 -1.48822 8.96505 -99.4953 -40.653 61.0296 -9.60437 19.8475 11.3459 11.5746 10.53 -55.3804 25.9746 3.16008 8.46652 6.32845 -24.7909 11.5203 16.7724 -28.8615 -16.027 
-76.7356 53.175 26.5265 81.86 20.6266 63.7753 -134.064 65.3295 73.1508 -105.145 18.713 1.2875 62.6978 7.68128 11.5384 49.238 19.0851 15.2357 152.767 59.6118 95.5026 -128.152 0.992871 -3.64846 49.1711 -3.31595 -6.07029 56.6463 4.14455 14.9433 0.673319 10.9346 -89.553 4.99834 1.52946 0.852104 -6.67195 1.5655 0.783948 -29.2098 1.20269 1.2724 -9.19714 1.2027 1.27239 87.7626 -36.3742 -108.57 -10.8377 20.2827 -7.60348 -18.0991 -21.526 -48.9383 -9.8909 -1.40143 8.10278 -98.7344 -40.8507 62.3307 -13.4349 19.624 15.0602 9.81634 12.2083 -49.947 23.9571 2.48945 6.60538 4.61379 -25.2398 10.641 17.1471 -29.1094 -16.0597 
-77.689 53.0993 26.6519 84.6987 20.6716 62.7569 -121.812 65.8338 62.9786 -104.943 25.6927 0.814063 62.0596 5.62675 9.30482 49.536 19.8462 17.1705 151.382 58.6728 95.1271 -128.807 1.0775 -3.73117 49.996 -3.83738 -6.62731 54.3868 2.95683 10.3068 0.654359 11.0762 -89.3941 4.7117 1.55565 1.16809 -6.95877 1.60555 1.0985 -29.4942 1.13271 1.5816 -9.48154 1.1327 1.58158 87.3815 -39.6019 -108.07 -9.22266 18.4782 -7.2753 -18.5655 -22.4726 -49.5367 -12.7534 -1.78523 9.10644 -98.3114 -41.302 63.1912 -17.1828 20.3557 18.4891 7.25682 12.6406 -45.5893 21.4886 2.25705 6.70747 3.05987 -25.7212 10.7826 17.4628 -29.6888 -16.8963 
-78.7295 52.8328 26.4132 87.113 20.4333 62.753 -112.44 65.886 54.8827 -105.097 31.458 0.523058 59.9685 2.99762 8.58513 51.9175 21.7858 15.3432 151.321 57.9764 94.6801 -129.663 0.726491 -3.75244 49.0645 -3.47446 -6.59825 54.168 3.02742 10.9284 0.645879 11.2447 -89.2944 4.37262 1.5774 1.36925 -7.29802 1.63614 1.2985 -29.8316 1.09304 1.77996 -9.81896 1.09304 1.77995 87.1092 -41.0326 -108.034 -6.59356 16.9528 -6.73853 -20.7228 -23.4777 -50.5475 -13.065 -1.66402 7.83191 -97.4501 -41.274 64.5531 -21.5735 21.2545 20.9011 4.93717 12.6763 -42.1703 20.0328 1.97827 6.03875 3.1321 -25.7531 10.2871 17.0417 -29.5724 -16.7351 
-79.7506 52.4541 26.0081 89.1936 19.7706 62.7672 -107.159 65.5772 49.8426 -106.06 33.3396 0.719919 58.6813 1.45072 7.45705 51.3141 20.7541 13.6703 151.532 57.4938 94.1835 -130.694 0.613747 -3.76198 48.0048 -3.05454 -6.5365 54.8042 3.16848 11.2055 0.622823 11.4091 -89.2183 4.04237 1.56001 1.52479 -7.62845 1.6256 1.45465 -30.1603 1.02973 1.92305 -10.1476 1.02972 1.92304 86.7884 -41.7897 -108.312 -4.80229 15.6987 -6.05773 -20.3722 -23.5993 -50.358 -14.4137 -1.8247 8.19659 -97.5297 -42.2403 64.8063 -25.2581 20.761 23.2259 4.15729 12.3844 -40.5927 17.0571 1.50793 4.95527 2.58048 -25.7947 10.6459 16.7219 -29.7645 -17.7483 
-80.7088 52.0221 25.5323 90.1173 18.4418 63.9333 -106.523 67.1644 48.8476 -107.261 31.991 1.15759 57.9569 0.758868 7.06976 46.73 15.9422 11.8027 151.03 57.2917 95.6921 -131.486 0.621319 -3.75115 47.2643 -2.93748 -6.63198 55.4442 3.23296 11.0235 0.753536 11.4681 -89.1531 3.92071 1.84656 1.65341 -7.74987 1.91749 1.57053 -30.2823 1.26438 2.13179 -10.2696 1.26439 2.13181 86.9621 -42.2728 -107.857 -2.7527 14.4173 -5.63638 -17.2505 -21.6341 -49.6756 -14.6971 -1.767 7.62193 -97.7219 -42.5552 64.6257 -29.2288 19.2402 24.9758 4.65631 12.9738 -39.4073 14.7973 1.04085 3.09391 1.92473 -25.7427 10.099 16.2959 -29.6746 -18.4813 
